<svg width="194" height="207" viewBox="0 0 194 207" fill="none" xmlns="http://www.w3.org/2000/svg">
<path opacity="0.1" d="M168.425 154.399C177.765 156.638 185.947 161.038 191.35 169.22C195.133 174.932 192.508 182.342 185.561 187.437C176.607 193.998 166.341 197.394 155.766 200.173C142.721 203.492 129.444 205.19 116.09 206.271C106.21 207.12 96.3298 207.12 86.4495 206.811C64.5276 206.039 42.8372 203.415 22.1504 195.387C15.8208 192.917 9.7228 189.984 4.78265 185.044C-2.62758 177.556 -0.852212 169.915 6.17206 163.817C11.5754 159.185 17.9821 156.175 24.6204 153.705C24.6204 157.796 24.852 161.964 24.6976 166.055C24.6204 168.602 25.4695 169.529 27.9396 170.146C49.8615 175.858 71.7062 181.802 93.6282 187.591C95.0176 187.977 96.3298 188.44 98.1052 187.977C120.722 181.879 143.338 175.858 166.032 169.915C167.808 169.451 168.502 168.68 168.502 166.75C168.194 162.659 168.348 158.568 168.425 154.399Z" fill="#FE681B"/>
<path d="M168.425 154.399C168.348 158.491 168.193 162.582 168.348 166.75C168.425 168.68 167.73 169.452 165.878 169.915C143.261 175.858 120.567 181.802 97.9506 187.977C96.2524 188.44 94.863 187.977 93.4735 187.591C71.5516 181.802 49.7069 175.858 27.785 170.146C25.3149 169.529 24.4658 168.602 24.543 166.055C24.6974 161.964 24.543 157.873 24.4658 153.705C24.543 132.709 24.6202 111.714 24.6202 90.7951C24.6202 88.2478 25.1605 87.0899 27.8622 86.3952C49.7841 80.6832 71.6288 74.8168 93.4735 68.8731C96.4839 68.0241 99.2628 68.6416 102.042 69.4907C104.126 70.1082 149.205 82.3042 165.106 86.318C167.807 87.0128 168.425 88.1706 168.348 90.7179C168.27 112.022 168.348 133.249 168.425 154.399ZM166.65 90.5635C166.032 90.5635 165.646 90.4091 165.337 90.4863C143.338 96.3527 121.416 102.296 99.4172 108.008C96.8699 108.703 97.333 110.17 97.333 111.714C97.333 135.488 97.333 159.262 97.2558 183.037C97.2558 185.353 97.2558 186.356 100.343 185.584C121.416 179.795 142.566 174.237 163.716 168.757C166.341 168.062 166.804 166.981 166.804 164.589C166.727 150.077 166.727 135.565 166.727 121.053C166.65 110.864 166.65 100.753 166.65 90.5635ZM26.3956 90.2547C26.3184 91.1038 26.2412 91.6441 26.2412 92.1845C26.2412 116.499 26.3184 140.737 26.164 165.052C26.164 167.985 27.6306 168.371 29.7147 168.911C50.4788 174.392 71.2429 179.795 91.9297 185.507C95.0173 186.356 95.6349 184.04 95.6349 184.04L94.863 109.012C94.863 109.012 87.3755 106.465 83.4389 105.384C64.6045 100.367 45.693 95.3493 26.3956 90.2547ZM97.2558 70.1082C97.2558 81.9954 97.2558 93.4195 97.2558 104.844C97.2558 107.005 98.2593 106.619 99.6487 106.233C106.055 104.458 112.539 102.837 118.946 101.138C134.539 96.9702 150.054 92.802 166.341 88.4794C143.029 82.3042 120.413 76.2834 97.2558 70.1082ZM26.8587 88.4794C33.9602 90.3319 40.4441 92.1073 46.9281 93.8055C62.2888 97.8965 77.5724 101.91 92.9332 106.001C94.2454 106.387 95.6349 107.391 95.6349 104.689C95.5577 93.2651 95.6349 81.9182 95.6349 70.1854C72.6323 76.3606 50.0157 82.3814 26.8587 88.4794Z" fill="#FE681B"/>
<path opacity="0.3" d="M97.2558 70.1082C120.49 76.2834 143.029 82.3042 166.341 88.4794C150.054 92.802 134.539 96.9703 118.946 101.139C112.539 102.837 106.055 104.535 99.6487 106.233C98.2593 106.619 97.1787 107.005 97.2558 104.844C97.2558 93.4195 97.2558 81.9954 97.2558 70.1082Z" fill="#FE681B"/>
<path opacity="0.3" d="M26.8594 88.4794C50.0163 82.3042 72.633 76.2834 95.6355 70.1854C95.6355 81.9182 95.6355 93.3423 95.6355 104.689C95.6355 107.391 94.2461 106.31 92.9339 106.001C77.6503 101.91 62.2895 97.8965 46.9287 93.8055C40.4448 92.1073 33.9608 90.4091 26.8594 88.4794Z" fill="#FE681B"/>
<path d="M45.2295 146.372C50.0153 141.432 55.5729 141.74 61.2078 143.439C65.9164 144.905 69.6215 147.53 71.1653 152.624C64.0638 143.824 55.5729 141.509 45.2295 146.372Z" fill="#FE681B"/>
<path opacity="0.2" d="M77.8816 149.768C76.6466 148.919 74.0993 149.614 74.1765 146.989C74.2537 145.6 75.4888 144.905 76.6466 145.523C78.1132 146.295 80.9692 145.291 80.892 148.224C80.8148 149.845 79.3482 149.922 77.8816 149.768Z" fill="#FE681B"/>
<path opacity="0.2" d="M41.2163 140.66C39.7497 140.351 37.7427 140.351 37.3568 138.421C37.048 136.955 38.669 136.491 39.7497 136.877C41.2935 137.341 43.6864 137.109 43.7635 139.579C43.8407 140.891 42.2969 140.583 41.2163 140.66Z" fill="#FE681B"/>
<path d="M46.6188 118.12C43.9172 118.969 41.6787 120.359 39.9033 123.601C39.9805 118.969 42.605 117.117 46.6188 118.12Z" fill="#FE681B"/>
<path d="M79.8879 129.699C77.6494 128.618 76.4143 126.225 73.7899 125.994C73.0952 125.916 73.018 125.299 73.4039 124.913C73.7127 124.604 74.3302 124.45 74.7162 124.527C77.2634 125.299 79.3475 126.688 79.8879 129.699Z" fill="#FE681B"/>
<path d="M79.1156 141.277C78.884 142.667 78.1121 143.207 76.9543 143.13C75.642 143.053 75.1017 142.126 75.2561 141.046C75.4105 140.042 76.2596 139.116 77.4174 139.347C78.4209 139.425 79.1156 140.274 79.1156 141.277Z" fill="#FE681B"/>
<path d="M43.9952 133.018C43.918 134.407 43.3005 135.179 42.1426 135.179C40.9076 135.256 40.2129 134.485 40.1357 133.327C40.0585 132.169 40.7532 131.397 41.9883 131.32C43.2233 131.243 43.7636 132.092 43.9952 133.018Z" fill="#FE681B"/>
<path d="M95.5093 9.16537C95.9068 8.98304 96.3043 8.8007 96.7146 8.66213C98.8792 7.92621 100.708 8.55445 102.169 10.1874C103.597 11.7845 103.886 13.6829 103.063 15.6756C102.44 17.1839 101.285 18.228 99.8596 18.9841C98.6519 19.6265 97.3423 19.9819 96.0072 20.2498C94.1455 20.6199 92.2605 20.8265 90.3815 21.1076C89.4502 21.2466 88.5204 21.3936 87.6001 21.5682C87.2032 21.6454 87.029 21.5279 86.9519 21.131C86.4998 18.8481 85.8663 16.6046 85.3429 14.344C84.9841 12.7786 84.6738 11.2038 84.7086 9.58711C84.7406 8.17274 85.0731 6.8555 85.8016 5.62944C87.2408 3.1934 90.3837 2.32202 92.8508 3.70471C93.9835 4.34209 94.864 5.21764 95.2666 6.48872C95.5148 7.26855 95.546 8.07796 95.5027 8.89343C95.4941 8.97917 95.4694 9.06805 95.5093 9.16537ZM101.824 16.135C102 15.8738 102.158 15.6076 102.278 15.3153C103.039 13.4355 102.475 11.3511 100.847 10.1332C99.7505 9.31638 98.5481 8.99098 97.1992 9.42546C96.5263 9.64028 95.8984 9.93465 95.2847 10.2809C95.0996 10.3883 94.9163 10.4618 94.7132 10.3247C94.51 10.1876 94.4981 9.9966 94.5284 9.78475C94.6146 9.10384 94.6588 8.42271 94.6091 7.73459C94.5411 6.8651 94.2702 6.07704 93.6587 5.43926C93.1936 4.94957 92.6552 4.55819 92.0336 4.27966C90.3077 3.50956 88.1117 4.04138 86.9481 5.51593C86.1283 6.55375 85.7139 7.75239 85.6065 9.05953C85.4833 10.5673 85.7277 12.0414 86.0499 13.5047C86.5599 15.8477 87.2352 18.1545 87.7127 20.5039C87.7379 20.6335 87.7945 20.6435 87.9079 20.6215C89.9525 20.241 92.0173 20.0079 94.0713 19.697C95.4594 19.4861 96.8365 19.2395 98.1614 18.7677C99.6403 18.2449 100.925 17.4572 101.824 16.135Z" fill="#FE681B" stroke="#FE681B"/>
<path d="M98.9116 15.1375C98.7473 15.386 98.5688 15.4067 98.3341 15.2618C98.1132 15.1262 98.0578 14.9445 98.1842 14.7173C98.3651 14.3894 98.384 14.0428 98.3242 13.6834C98.3018 13.5474 98.2778 13.4137 98.2322 13.2821C98.103 12.8961 97.8894 12.5706 97.5641 12.321C97.3803 12.1802 97.3335 11.9908 97.4301 11.8276C97.5236 11.6691 97.7286 11.6092 97.9335 11.6937C98.2032 11.8017 98.3796 12.0181 98.5522 12.2353C98.8666 12.6354 99.0486 13.0874 99.1247 13.592C99.1969 14.0773 99.182 14.5475 98.9811 14.9997C98.9709 15.0197 98.9654 15.0428 98.9552 15.0629C98.9389 15.0921 98.9217 15.1175 98.9116 15.1375Z" fill="#FE681B" stroke="#FE681B"/>
<path d="M101.81 26.0328C107.213 35.4242 122.033 54.1299 138.089 53.8211C152.369 49.5757 143.878 37.2253 138.089 37.2253C131.656 37.4826 117.479 42.5514 112.23 60.7682C108.783 72.7326 115.704 86.6268 118.791 90.8723" stroke="#FE681B" stroke-width="2" stroke-dasharray="5 3"/>
</svg>
